<?xml version="1.0" encoding="UTF-8"?>
<!DOCTYPE score-partwise PUBLIC "-//Recordare//DTD MusicXML 2.0 Partwise//EN" "http://www.musicxml.org/dtds/partwise.dtd">
<score-partwise version="2.0">
    <work>
        <work-number></work-number>
        <work-title></work-title>
    </work>
    <movement-number></movement-number>
    <movement-title>Yesterday</movement-title>
    <identification>
            <creator type="composer"></creator>
            <creator type="poet"></creator>
        <rights></rights>
        <encoding>
            <software>DoremiScript</software>
            <encoding-date></encoding-date>
            <software>DoremiScript</software>
        </encoding>
        <source></source>
    </identification>
    <defaults>
        <scaling>
            <millimeters>7.056</millimeters>
            <tenths>40</tenths>
        </scaling>
        <page-layout>
            <page-height>1683.67</page-height>
            <page-width>1190.48</page-width>
            <page-margins type="both">
                <left-margin>56.6893</left-margin>
                <right-margin>56.6893</right-margin>
                <top-margin>56.6893</top-margin>
                <bottom-margin>113.379</bottom-margin>
            </page-margins>
        </page-layout>
    </defaults>
    <credit page="1">
            <credit-words font-size="24" default-y="1626.98" default-x="595.238" justify="center" valign="top">Yesterday</credit-words>
    </credit>
    <part-list>
        <score-part id="P1">
            <part-name></part-name>
            <score-instrument id="P1-I3">
                <instrument-name></instrument-name>
            </score-instrument>
            <midi-instrument id="P1-I3">
                <midi-channel>1</midi-channel>
                <midi-program>1</midi-program>
            </midi-instrument>
        </score-part>
    </part-list>
    <part id="P1">
        <measure number="0" implicit="yes">
            <print>
                <system-layout>
                    <system-margins>
                        <left-margin>-0.00</left-margin>
                        <right-margin>0.00</right-margin>
                    </system-margins>
                    <top-system-distance>252.10</top-system-distance>
                </system-layout>
            </print>
            <attributes>
                <divisions>24</divisions>
                <key>
                    <fifths>0</fifths>
                    <mode>major</mode>
                </key>
                <time>
                        <beats>4</beats>
                        <beat-type>4</beat-type>
                </time>
                <clef>
                    <sign>G</sign>
                    <line>2</line>
                </clef>
                <transpose>
  <diatonic>1</diatonic>
  <chromatic>2</chromatic>
</transpose>
            </attributes>
            
            

</measure> <measure number="2">

            <direction placement="above">
                <direction-type>
<words default-x="-1" default-y="15" font-size="medium" font-weight="normal">F</words>
                </direction-type>
            </direction>
<note>
  <pitch>
    <step>D</step>
    
    <octave>4</octave>
  </pitch>
  <duration>12</duration>
  
  <voice>1</voice>
  <type>eighth</type>
  <lyric number="1">
   <text>yes-</text>
</lyric>
  <notations>
  </notations>
 </note>
  

<note>
  <pitch>
    <step>C</step>
    
    <octave>4</octave>
  </pitch>
  <duration>12</duration>
  
  <voice>1</voice>
  <type>eighth</type>
  <lyric number="1">
   <text>ter</text>
</lyric>
  <notations>
  </notations>
 </note>
  

<note>
  <pitch>
    <step>C</step>
    
    <octave>4</octave>
  </pitch>
  <duration>24</duration>
  <tie type="start"/>
  <voice>1</voice>
  <type>quarter</type>
  <lyric number="1">
   <text>day</text>
</lyric>
  <notations><tied type="start"/>
  </notations>
 </note>
  

<note>
  <pitch>
    <step>C</step>
    
    <octave>4</octave>
  </pitch>
  <duration>24</duration>
  <tie type="start"/>
  <voice>1</voice>
  <type>quarter</type>
  
  <notations><tied type="stop"/><tied type="start"/>
  </notations>
 </note>
   

<note>
  <pitch>
    <step>C</step>
    
    <octave>4</octave>
  </pitch>
  <duration>24</duration>
  <tie type="start"/>
  <voice>1</voice>
  <type>quarter</type>
  
  <notations><tied type="stop"/><tied type="start"/>
  </notations>
 </note>
   
</measure> <measure number="3">

            <direction placement="above">
                <direction-type>
<words default-x="-1" default-y="15" font-size="medium" font-weight="normal">Em7</words>
                </direction-type>
            </direction>
<note>
  <pitch>
    <step>C</step>
    
    <octave>4</octave>
  </pitch>
  <duration>24</duration>
  
  <voice>1</voice>
  <type>quarter</type>
  
  <notations><tied type="stop"/>
  </notations>
 </note>
   

<note>
  <pitch>
    <step>E</step>
    
    <octave>4</octave>
  </pitch>
  <duration>12</duration>
  
  <voice>1</voice>
  <type>eighth</type>
  <lyric number="1">
   <text>all</text>
</lyric>
  <notations>
  </notations>
 </note>
  

<note>
  <pitch>
    <step>F</step>
    <alter>1</alter>
    <octave>4</octave>
  </pitch>
  <duration>12</duration>
  
  <voice>1</voice>
  <type>eighth</type>
  <lyric number="1">
   <text>my</text>
</lyric>
  <notations>
  </notations>
 </note>
  
            <direction placement="above">
                <direction-type>
<words default-x="-1" default-y="15" font-size="medium" font-weight="normal">A7</words>
                </direction-type>
            </direction>
<note>
  <pitch>
    <step>G</step>
    <alter>1</alter>
    <octave>4</octave>
  </pitch>
  <duration>12</duration>
  
  <voice>1</voice>
  <type>eighth</type>
  <lyric number="1">
   <text>trou-</text>
</lyric>
  <notations>
  </notations>
 </note>
  

<note>
  <pitch>
    <step>A</step>
    
    <octave>4</octave>
  </pitch>
  <duration>12</duration>
  
  <voice>1</voice>
  <type>eighth</type>
  <lyric number="1">
   <text>bles</text>
</lyric>
  <notations>
  </notations>
 </note>
  

<note>
  <pitch>
    <step>B</step>
    
    <octave>4</octave>
  </pitch>
  <duration>12</duration>
  
  <voice>1</voice>
  <type>eighth</type>
  <lyric number="1">
   <text>seemed</text>
</lyric>
  <notations>
  </notations>
 </note>
  

<note>
  <pitch>
    <step>C</step>
    
    <octave>5</octave>
  </pitch>
  <duration>12</duration>
  
  <voice>1</voice>
  <type>eighth</type>
  <lyric number="1">
   <text>so</text>
</lyric>
  <notations>
  </notations>
 </note>
  
</measure> <measure number="4">

            <direction placement="above">
                <direction-type>
<words default-x="-1" default-y="15" font-size="medium" font-weight="normal">Dmi</words>
                </direction-type>
            </direction>
<note>
  <pitch>
    <step>B</step>
    
    <octave>4</octave>
  </pitch>
  <duration>24</duration>
  
  <voice>1</voice>
  <type>quarter</type>
  <lyric number="1">
   <text>far</text>
</lyric>
  <notations>
  </notations>
 </note>
  

<note>
  <pitch>
    <step>A</step>
    
    <octave>4</octave>
  </pitch>
  <duration>12</duration>
  
  <voice>1</voice>
  <type>eighth</type>
  <lyric number="1">
   <text>a-</text>
</lyric>
  <notations>
  </notations>
 </note>
  

<note>
  <pitch>
    <step>A</step>
    
    <octave>4</octave>
  </pitch>
  <duration>12</duration>
  <tie type="start"/>
  <voice>1</voice>
  <type>eighth</type>
  <lyric number="1">
   <text>way</text>
</lyric>
  <notations><tied type="start"/>
  </notations>
 </note>
  
            <direction placement="above">
                <direction-type>
<words default-x="-1" default-y="15" font-size="medium" font-weight="normal">Dmi/C</words>
                </direction-type>
            </direction>
<note>
  <pitch>
    <step>A</step>
    
    <octave>4</octave>
  </pitch>
  <duration>24</duration>
  <tie type="start"/>
  <voice>1</voice>
  <type>quarter</type>
  
  <notations><tied type="stop"/><tied type="start"/>
  </notations>
 </note>
   

<note>
  <pitch>
    <step>A</step>
    
    <octave>4</octave>
  </pitch>
  <duration>24</duration>
  
  <voice>1</voice>
  <type>quarter</type>
  
  <notations><tied type="stop"/>
  </notations>
 </note>
   
</measure> <measure number="5">
   

<note>
  <pitch>
    <step>A</step>
    
    <octave>4</octave>
  </pitch>
  <duration>12</duration>
  
  <voice>1</voice>
  <type>eighth</type>
  <lyric number="1">
   <text>now</text>
</lyric>
  <notations>
  </notations>
 </note>
  

<note>
  <pitch>
    <step>A</step>
    
    <octave>4</octave>
  </pitch>
  <duration>12</duration>
  
  <voice>1</voice>
  <type>eighth</type>
  <lyric number="1">
   <text>it</text>
</lyric>
  <notations>
  </notations>
 </note>
  
            <direction placement="above">
                <direction-type>
<words default-x="-1" default-y="15" font-size="medium" font-weight="normal">C7</words>
                </direction-type>
            </direction>
<note>
  <pitch>
    <step>G</step>
    
    <octave>4</octave>
  </pitch>
  <duration>12</duration>
  
  <voice>1</voice>
  <type>eighth</type>
  <lyric number="1">
   <text>looks</text>
</lyric>
  <notations>
  </notations>
 </note>
  

<note>
  <pitch>
    <step>F</step>
    
    <octave>4</octave>
  </pitch>
  <duration>12</duration>
  
  <voice>1</voice>
  <type>eighth</type>
  <lyric number="1">
   <text>as</text>
</lyric>
  <notations>
  </notations>
 </note>
  

<note>
  <pitch>
    <step>E</step>
    
    <octave>4</octave>
  </pitch>
  <duration>12</duration>
  
  <voice>1</voice>
  <type>eighth</type>
  <lyric number="1">
   <text>though</text>
</lyric>
  <notations>
  </notations>
 </note>
  

<note>
  <pitch>
    <step>D</step>
    
    <octave>4</octave>
  </pitch>
  <duration>12</duration>
  
  <voice>1</voice>
  <type>eighth</type>
  <lyric number="1">
   <text>they're</text>
</lyric>
  <notations>
  </notations>
 </note>
  
</measure> <measure number="6">

            <direction placement="above">
                <direction-type>
<words default-x="-1" default-y="15" font-size="medium" font-weight="normal">F</words>
                </direction-type>
            </direction>
<note>
  <pitch>
    <step>F</step>
    
    <octave>4</octave>
  </pitch>
  <duration>24</duration>
  
  <voice>1</voice>
  <type>quarter</type>
  <lyric number="1">
   <text>here</text>
</lyric>
  <notations>
  </notations>
 </note>
  

<note>
  <pitch>
    <step>E</step>
    
    <octave>4</octave>
  </pitch>
  <duration>12</duration>
  
  <voice>1</voice>
  <type>eighth</type>
  <lyric number="1">
   <text>to</text>
</lyric>
  <notations>
  </notations>
 </note>
  

<note>
  <pitch>
    <step>E</step>
    
    <octave>4</octave>
  </pitch>
  <duration>12</duration>
  <tie type="start"/>
  <voice>1</voice>
  <type>eighth</type>
  <lyric number="1">
   <text>stay</text>
</lyric>
  <notations><tied type="start"/>
  </notations>
 </note>
  

<note>
  <pitch>
    <step>E</step>
    
    <octave>4</octave>
  </pitch>
  <duration>24</duration>
  
  <voice>1</voice>
  <type>quarter</type>
  
  <notations><tied type="stop"/>
  </notations>
 </note>
   
            <direction placement="above">
                <direction-type>
<words default-x="-1" default-y="15" font-size="medium" font-weight="normal">C/E</words>
                </direction-type>
            </direction>
<note>
  <pitch>
    <step>D</step>
    
    <octave>4</octave>
  </pitch>
  <duration>24</duration>
  
  <voice>1</voice>
  <type>quarter</type>
  <lyric number="1">
   <text>oh</text>
</lyric>
  <notations>
  </notations>
 </note>
   
</measure> <measure number="7">

            <direction placement="above">
                <direction-type>
<words default-x="-1" default-y="15" font-size="medium" font-weight="normal">Dmi</words>
                </direction-type>
            </direction>
<note>
  <pitch>
    <step>C</step>
    
    <octave>4</octave>
  </pitch>
  <duration>24</duration>
  
  <voice>1</voice>
  <type>quarter</type>
  <lyric number="1">
   <text>I</text>
</lyric>
  <notations>
  </notations>
 </note>
  

<note>
  <pitch>
    <step>E</step>
    
    <octave>4</octave>
  </pitch>
  <duration>24</duration>
  
  <voice>1</voice>
  <type>quarter</type>
  <lyric number="1">
   <text>be-</text>
</lyric>
  <notations>
  </notations>
 </note>
  
            <direction placement="above">
                <direction-type>
<words default-x="-1" default-y="15" font-size="medium" font-weight="normal">G</words>
                </direction-type>
            </direction>
<note>
  <pitch>
    <step>D</step>
    
    <octave>4</octave>
  </pitch>
  <duration>24</duration>
  
  <voice>1</voice>
  <type>quarter</type>
  <lyric number="1">
   <text>lieve</text>
</lyric>
  <notations>
  </notations>
 </note>
  

<note>
  <pitch>
    <step>A</step>
    
    <octave>3</octave>
  </pitch>
  <duration>24</duration>
  
  <voice>1</voice>
  <type>quarter</type>
  <lyric number="1">
   <text>in</text>
</lyric>
  <notations>
  </notations>
 </note>
  
</measure> <measure number="8">

            <direction placement="above">
                <direction-type>
<words default-x="-1" default-y="15" font-size="medium" font-weight="normal">Bb</words>
                </direction-type>
            </direction>
<note>
  <pitch>
    <step>C</step>
    
    <octave>4</octave>
  </pitch>
  <duration>24</duration>
  
  <voice>1</voice>
  <type>quarter</type>
  <lyric number="1">
   <text>Yes-</text>
</lyric>
  <notations>
  </notations>
 </note>
  

<note>
  <pitch>
    <step>E</step>
    
    <octave>4</octave>
  </pitch>
  <duration>12</duration>
  
  <voice>1</voice>
  <type>eighth</type>
  <lyric number="1">
   <text>ter-</text>
</lyric>
  <notations>
  </notations>
 </note>
  

<note>
  <pitch>
    <step>E</step>
    
    <octave>4</octave>
  </pitch>
  <duration>12</duration>
  <tie type="start"/>
  <voice>1</voice>
  <type>eighth</type>
  <lyric number="1">
   <text>day</text>
</lyric>
  <notations><tied type="start"/>
  </notations>
 </note>
  
            <direction placement="above">
                <direction-type>
<words default-x="-1" default-y="15" font-size="medium" font-weight="normal">F</words>
                </direction-type>
            </direction>
<note>
  <pitch>
    <step>E</step>
    
    <octave>4</octave>
  </pitch>
  <duration>24</duration>
  <tie type="start"/>
  <voice>1</voice>
  <type>quarter</type>
  
  <notations><tied type="stop"/><tied type="start"/>
  </notations>
 </note>
  

<note>
  <pitch>
    <step>E</step>
    
    <octave>4</octave>
  </pitch>
  <duration>24</duration>
  
  <voice>1</voice>
  <type>quarter</type>
  
  <notations><tied type="stop"/>
  </notations>
 </note>
  
</measure> <measure number="9">

</measure> <measure number="10">

            <direction placement="above">
                <direction-type>
<words default-x="-1" default-y="15" font-size="medium" font-weight="normal">F</words>
                </direction-type>
            </direction>
<note>
  <pitch>
    <step>D</step>
    
    <octave>4</octave>
  </pitch>
  <duration>12</duration>
  
  <voice>1</voice>
  <type>eighth</type>
  <lyric number="1">
   <text>sudd-</text>
</lyric>
  <notations>
  </notations>
 </note>
  

<note>
  <pitch>
    <step>C</step>
    
    <octave>4</octave>
  </pitch>
  <duration>12</duration>
  
  <voice>1</voice>
  <type>eighth</type>
  <lyric number="1">
   <text>en-</text>
</lyric>
  <notations>
  </notations>
 </note>
  

<note>
  <pitch>
    <step>C</step>
    
    <octave>4</octave>
  </pitch>
  <duration>24</duration>
  <tie type="start"/>
  <voice>1</voice>
  <type>quarter</type>
  <lyric number="1">
   <text>ly</text>
</lyric>
  <notations><tied type="start"/>
  </notations>
 </note>
   

<note>
  <pitch>
    <step>C</step>
    
    <octave>4</octave>
  </pitch>
  <duration>24</duration>
  <tie type="start"/>
  <voice>1</voice>
  <type>quarter</type>
  
  <notations><tied type="stop"/><tied type="start"/>
  </notations>
 </note>
   

<note>
  <pitch>
    <step>C</step>
    
    <octave>4</octave>
  </pitch>
  <duration>24</duration>
  <tie type="start"/>
  <voice>1</voice>
  <type>quarter</type>
  
  <notations><tied type="stop"/><tied type="start"/>
  </notations>
 </note>
   
</measure> <measure number="11">

            <direction placement="above">
                <direction-type>
<words default-x="-1" default-y="15" font-size="medium" font-weight="normal">Em7</words>
                </direction-type>
            </direction>
<note>
  <pitch>
    <step>C</step>
    
    <octave>4</octave>
  </pitch>
  <duration>24</duration>
  
  <voice>1</voice>
  <type>quarter</type>
  
  <notations><tied type="stop"/>
  </notations>
 </note>
   

<note>
  <pitch>
    <step>E</step>
    
    <octave>4</octave>
  </pitch>
  <duration>12</duration>
  
  <voice>1</voice>
  <type>eighth</type>
  <lyric number="1">
   <text>I'm</text>
</lyric>
  <notations>
  </notations>
 </note>
  

<note>
  <pitch>
    <step>F</step>
    <alter>1</alter>
    <octave>4</octave>
  </pitch>
  <duration>12</duration>
  
  <voice>1</voice>
  <type>eighth</type>
  <lyric number="1">
   <text>not</text>
</lyric>
  <notations>
  </notations>
 </note>
  
            <direction placement="above">
                <direction-type>
<words default-x="-1" default-y="15" font-size="medium" font-weight="normal">A7</words>
                </direction-type>
            </direction>
<note>
  <pitch>
    <step>G</step>
    <alter>1</alter>
    <octave>4</octave>
  </pitch>
  <duration>12</duration>
  
  <voice>1</voice>
  <type>eighth</type>
  <lyric number="1">
   <text>half</text>
</lyric>
  <notations>
  </notations>
 </note>
  

<note>
  <pitch>
    <step>A</step>
    
    <octave>4</octave>
  </pitch>
  <duration>12</duration>
  
  <voice>1</voice>
  <type>eighth</type>
  <lyric number="1">
   <text>the</text>
</lyric>
  <notations>
  </notations>
 </note>
  

<note>
  <pitch>
    <step>B</step>
    
    <octave>4</octave>
  </pitch>
  <duration>12</duration>
  
  <voice>1</voice>
  <type>eighth</type>
  <lyric number="1">
   <text>man</text>
</lyric>
  <notations>
  </notations>
 </note>
  

<note>
  <pitch>
    <step>C</step>
    
    <octave>5</octave>
  </pitch>
  <duration>12</duration>
  
  <voice>1</voice>
  <type>eighth</type>
  <lyric number="1">
   <text>I</text>
</lyric>
  <notations>
  </notations>
 </note>
  
</measure> <measure number="12">

            <direction placement="above">
                <direction-type>
<words default-x="-1" default-y="15" font-size="medium" font-weight="normal">Dmi</words>
                </direction-type>
            </direction>
<note>
  <pitch>
    <step>B</step>
    
    <octave>4</octave>
  </pitch>
  <duration>24</duration>
  
  <voice>1</voice>
  <type>quarter</type>
  <lyric number="1">
   <text>used</text>
</lyric>
  <notations>
  </notations>
 </note>
  

<note>
  <pitch>
    <step>A</step>
    
    <octave>4</octave>
  </pitch>
  <duration>12</duration>
  
  <voice>1</voice>
  <type>eighth</type>
  <lyric number="1">
   <text>to</text>
</lyric>
  <notations>
  </notations>
 </note>
  

<note>
  <pitch>
    <step>A</step>
    
    <octave>4</octave>
  </pitch>
  <duration>12</duration>
  <tie type="start"/>
  <voice>1</voice>
  <type>eighth</type>
  <lyric number="1">
   <text>be</text>
</lyric>
  <notations><tied type="start"/>
  </notations>
 </note>
  
            <direction placement="above">
                <direction-type>
<words default-x="-1" default-y="15" font-size="medium" font-weight="normal">Dmi/C</words>
                </direction-type>
            </direction>
<note>
  <pitch>
    <step>A</step>
    
    <octave>4</octave>
  </pitch>
  <duration>24</duration>
  <tie type="start"/>
  <voice>1</voice>
  <type>quarter</type>
  
  <notations><tied type="stop"/><tied type="start"/>
  </notations>
 </note>
   

<note>
  <pitch>
    <step>A</step>
    
    <octave>4</octave>
  </pitch>
  <duration>24</duration>
  
  <voice>1</voice>
  <type>quarter</type>
  
  <notations><tied type="stop"/>
  </notations>
 </note>
   
</measure> <measure number="13">

</measure> <measure number="14">
  

<note>
  <pitch>
    <step>A</step>
    
    <octave>4</octave>
  </pitch>
  <duration>12</duration>
  
  <voice>1</voice>
  <type>eighth</type>
  <lyric number="1">
   <text>theres</text>
</lyric>
  <notations>
  </notations>
 </note>
  

<note>
  <pitch>
    <step>A</step>
    
    <octave>4</octave>
  </pitch>
  <duration>12</duration>
  
  <voice>1</voice>
  <type>eighth</type>
  <lyric number="1">
   <text>a</text>
</lyric>
  <notations>
  </notations>
 </note>
  
            <direction placement="above">
                <direction-type>
<words default-x="-1" default-y="15" font-size="medium" font-weight="normal">C7</words>
                </direction-type>
            </direction>
<note>
  <pitch>
    <step>G</step>
    
    <octave>4</octave>
  </pitch>
  <duration>12</duration>
  
  <voice>1</voice>
  <type>eighth</type>
  <lyric number="1">
   <text>sha-</text>
</lyric>
  <notations>
  </notations>
 </note>
  

<note>
  <pitch>
    <step>F</step>
    
    <octave>4</octave>
  </pitch>
  <duration>12</duration>
  
  <voice>1</voice>
  <type>eighth</type>
  <lyric number="1">
   <text>dow</text>
</lyric>
  <notations>
  </notations>
 </note>
  

<note>
  <pitch>
    <step>E</step>
    
    <octave>4</octave>
  </pitch>
  <duration>12</duration>
  
  <voice>1</voice>
  <type>eighth</type>
  <lyric number="1">
   <text>hang-</text>
</lyric>
  <notations>
  </notations>
 </note>
  

<note>
  <pitch>
    <step>D</step>
    
    <octave>4</octave>
  </pitch>
  <duration>12</duration>
  
  <voice>1</voice>
  <type>eighth</type>
  <lyric number="1">
   <text>ing</text>
</lyric>
  <notations>
  </notations>
 </note>
  
</measure> <measure number="15">

            <direction placement="above">
                <direction-type>
<words default-x="-1" default-y="15" font-size="medium" font-weight="normal">F</words>
                </direction-type>
            </direction>
<note>
  <pitch>
    <step>F</step>
    
    <octave>4</octave>
  </pitch>
  <duration>24</duration>
  
  <voice>1</voice>
  <type>quarter</type>
  <lyric number="1">
   <text>o-</text>
</lyric>
  <notations>
  </notations>
 </note>
  

<note>
  <pitch>
    <step>E</step>
    
    <octave>4</octave>
  </pitch>
  <duration>12</duration>
  
  <voice>1</voice>
  <type>eighth</type>
  <lyric number="1">
   <text>ver</text>
</lyric>
  <notations>
  </notations>
 </note>
  

<note>
  <pitch>
    <step>E</step>
    
    <octave>4</octave>
  </pitch>
  <duration>12</duration>
  <tie type="start"/>
  <voice>1</voice>
  <type>eighth</type>
  <lyric number="1">
   <text>me</text>
</lyric>
  <notations><tied type="start"/>
  </notations>
 </note>
  

<note>
  <pitch>
    <step>E</step>
    
    <octave>4</octave>
  </pitch>
  <duration>24</duration>
  
  <voice>1</voice>
  <type>quarter</type>
  
  <notations><tied type="stop"/>
  </notations>
 </note>
   
            <direction placement="above">
                <direction-type>
<words default-x="-1" default-y="15" font-size="medium" font-weight="normal">C/E</words>
                </direction-type>
            </direction>
<note>
  <pitch>
    <step>D</step>
    
    <octave>4</octave>
  </pitch>
  <duration>24</duration>
  
  <voice>1</voice>
  <type>quarter</type>
  <lyric number="1">
   <text>Oh</text>
</lyric>
  <notations>
  </notations>
 </note>
   
</measure> <measure number="16">

            <direction placement="above">
                <direction-type>
<words default-x="-1" default-y="15" font-size="medium" font-weight="normal">Dmi</words>
                </direction-type>
            </direction>
<note>
  <pitch>
    <step>C</step>
    
    <octave>4</octave>
  </pitch>
  <duration>24</duration>
  
  <voice>1</voice>
  <type>quarter</type>
  <lyric number="1">
   <text>I</text>
</lyric>
  <notations>
  </notations>
 </note>
  

<note>
  <pitch>
    <step>E</step>
    
    <octave>4</octave>
  </pitch>
  <duration>24</duration>
  
  <voice>1</voice>
  <type>quarter</type>
  <lyric number="1">
   <text>be-</text>
</lyric>
  <notations>
  </notations>
 </note>
  
            <direction placement="above">
                <direction-type>
<words default-x="-1" default-y="15" font-size="medium" font-weight="normal">G</words>
                </direction-type>
            </direction>
<note>
  <pitch>
    <step>D</step>
    
    <octave>4</octave>
  </pitch>
  <duration>24</duration>
  
  <voice>1</voice>
  <type>quarter</type>
  <lyric number="1">
   <text>lieve</text>
</lyric>
  <notations>
  </notations>
 </note>
  

<note>
  <pitch>
    <step>A</step>
    
    <octave>3</octave>
  </pitch>
  <duration>24</duration>
  
  <voice>1</voice>
  <type>quarter</type>
  <lyric number="1">
   <text>in</text>
</lyric>
  <notations>
  </notations>
 </note>
  
</measure> <measure number="17">

            <direction placement="above">
                <direction-type>
<words default-x="-1" default-y="15" font-size="medium" font-weight="normal">Bb</words>
                </direction-type>
            </direction>
<note>
  <pitch>
    <step>C</step>
    
    <octave>4</octave>
  </pitch>
  <duration>24</duration>
  
  <voice>1</voice>
  <type>quarter</type>
  <lyric number="1">
   <text>Yes-</text>
</lyric>
  <notations>
  </notations>
 </note>
  

<note>
  <pitch>
    <step>E</step>
    
    <octave>4</octave>
  </pitch>
  <duration>12</duration>
  
  <voice>1</voice>
  <type>eighth</type>
  <lyric number="1">
   <text>ter-</text>
</lyric>
  <notations>
  </notations>
 </note>
  

<note>
  <pitch>
    <step>E</step>
    
    <octave>4</octave>
  </pitch>
  <duration>12</duration>
  <tie type="start"/>
  <voice>1</voice>
  <type>eighth</type>
  <lyric number="1">
   <text>day</text>
</lyric>
  <notations><tied type="start"/>
  </notations>
 </note>
  
            <direction placement="above">
                <direction-type>
<words default-x="-1" default-y="15" font-size="medium" font-weight="normal">F</words>
                </direction-type>
            </direction>
<note>
  <pitch>
    <step>E</step>
    
    <octave>4</octave>
  </pitch>
  <duration>24</duration>
  <tie type="start"/>
  <voice>1</voice>
  <type>quarter</type>
  
  <notations><tied type="stop"/><tied type="start"/>
  </notations>
 </note>
  

<note>
  <pitch>
    <step>E</step>
    
    <octave>4</octave>
  </pitch>
  <duration>24</duration>
  
  <voice>1</voice>
  <type>quarter</type>
  
  <notations><tied type="stop"/>
  </notations>
 </note>
  <barline location="right">
   <repeat direction="backward" times="2"/>
</barline>
</measure> <measure number="18">
 
<barline location="right">
<bar-style>light-light</bar-style>
</barline>
</measure> <measure number="19">

            <direction placement="above">
                <direction-type>
<words default-x="-1" default-y="15" font-size="medium" font-weight="normal">A11</words>
                </direction-type>
            </direction>
<note>
  <pitch>
    <step>E</step>
    
    <octave>4</octave>
  </pitch>
  <duration>24</duration>
  <tie type="start"/>
  <voice>1</voice>
  <type>quarter</type>
  <lyric number="1">
   <text>why</text>
</lyric>
  <notations><tied type="start"/>
  </notations>
 </note>
  

<note>
  <pitch>
    <step>E</step>
    
    <octave>4</octave>
  </pitch>
  <duration>24</duration>
  
  <voice>1</voice>
  <type>quarter</type>
  
  <notations><tied type="stop"/>
  </notations>
 </note>
  
            <direction placement="above">
                <direction-type>
<words default-x="-1" default-y="15" font-size="medium" font-weight="normal">A7</words>
                </direction-type>
            </direction>
<note>
  <pitch>
    <step>E</step>
    
    <octave>4</octave>
  </pitch>
  <duration>24</duration>
  <tie type="start"/>
  <voice>1</voice>
  <type>quarter</type>
  <lyric number="1">
   <text>she</text>
</lyric>
  <notations><tied type="start"/>
  </notations>
 </note>
  

<note>
  <pitch>
    <step>E</step>
    
    <octave>4</octave>
  </pitch>
  <duration>24</duration>
  
  <voice>1</voice>
  <type>quarter</type>
  
  <notations><tied type="stop"/>
  </notations>
 </note>
  
</measure> <measure number="20">

            <direction placement="above">
                <direction-type>
<words default-x="-1" default-y="15" font-size="medium" font-weight="normal">Dmi</words>
                </direction-type>
            </direction>
<note>
  <pitch>
    <step>A</step>
    
    <octave>4</octave>
  </pitch>
  <duration>24</duration>
  
  <voice>1</voice>
  <type>quarter</type>
  <lyric number="1">
   <text>had</text>
</lyric>
  <notations>
  </notations>
 </note>
  
            <direction placement="above">
                <direction-type>
<words default-x="-1" default-y="15" font-size="medium" font-weight="normal">C</words>
                </direction-type>
            </direction>
<note>
  <pitch>
    <step>B</step>
    
    <octave>4</octave>
  </pitch>
  <duration>24</duration>
  
  <voice>1</voice>
  <type>quarter</type>
  <lyric number="1">
   <text>to</text>
</lyric>
  <notations>
  </notations>
 </note>
  
            <direction placement="above">
                <direction-type>
<words default-x="-1" default-y="15" font-size="medium" font-weight="normal">Bb</words>
                </direction-type>
            </direction>
<note>
  <pitch>
    <step>C</step>
    
    <octave>5</octave>
  </pitch>
  <duration>24</duration>
  
  <voice>1</voice>
  <type>quarter</type>
  <lyric number="1">
   <text>go</text>
</lyric>
  <notations>
  </notations>
 </note>
   
            <direction placement="above">
                <direction-type>
<words default-x="-1" default-y="15" font-size="medium" font-weight="normal">Dmi/A</words>
                </direction-type>
            </direction>
<note>
  <pitch>
    <step>B</step>
    
    <octave>4</octave>
  </pitch>
  <duration>12</duration>
  
  <voice>1</voice>
  <type>eighth</type>
  <lyric number="1">
   <text>I</text>
</lyric>
  <notations>
  </notations>
 </note>
  

<note>
  <pitch>
    <step>A</step>
    
    <octave>4</octave>
  </pitch>
  <duration>12</duration>
  
  <voice>1</voice>
  <type>eighth</type>
  <lyric number="1">
   <text>don't</text>
</lyric>
  <notations>
  </notations>
 </note>
  
</measure> <measure number="21">

            <direction placement="above">
                <direction-type>
<words default-x="-1" default-y="15" font-size="medium" font-weight="normal">G</words>
                </direction-type>
            </direction>
<note>
  <pitch>
    <step>B</step>
    
    <octave>4</octave>
  </pitch>
  <duration>24</duration>
  <tie type="start"/>
  <voice>1</voice>
  <type>quarter</type>
  <lyric number="1">
   <text>know</text>
</lyric>
  <notations><tied type="start"/>
  </notations>
 </note>
   

<note>
  <pitch>
    <step>B</step>
    
    <octave>4</octave>
  </pitch>
  <duration>12</duration>
  
  <voice>1</voice>
  <type>eighth</type>
  
  <notations><tied type="stop"/>
  </notations>
 </note>
  

<note>
  <pitch>
    <step>A</step>
    
    <octave>4</octave>
  </pitch>
  <duration>12</duration>
  
  <voice>1</voice>
  <type>eighth</type>
  <lyric number="1">
   <text>she</text>
</lyric>
  <notations>
  </notations>
 </note>
  
            <direction placement="above">
                <direction-type>
<words default-x="-1" default-y="15" font-size="medium" font-weight="normal">C</words>
                </direction-type>
            </direction>
<note>
  <pitch>
    <step>G</step>
    
    <octave>4</octave>
  </pitch>
  <duration>24</duration>
  
  <voice>1</voice>
  <type>quarter</type>
  <lyric number="1">
   <text>would-</text>
</lyric>
  <notations>
  </notations>
 </note>
  

<note>
  <pitch>
    <step>A</step>
    
    <octave>4</octave>
  </pitch>
  <duration>12</duration>
  
  <voice>1</voice>
  <type>eighth</type>
  <lyric number="1">
   <text>n't</text>
</lyric>
  <notations>
  </notations>
 </note>
  

<note>
  <pitch>
    <step>E</step>
    
    <octave>4</octave>
  </pitch>
  <duration>12</duration>
  <tie type="start"/>
  <voice>1</voice>
  <type>eighth</type>
  <lyric number="1">
   <text>say</text>
</lyric>
  <notations><tied type="start"/>
  </notations>
 </note>
  
</measure> <measure number="22">

            <direction placement="above">
                <direction-type>
<words default-x="-1" default-y="15" font-size="medium" font-weight="normal">F</words>
                </direction-type>
            </direction>
<note>
  <pitch>
    <step>E</step>
    
    <octave>4</octave>
  </pitch>
  <duration>24</duration>
  <tie type="start"/>
  <voice>1</voice>
  <type>quarter</type>
  
  <notations><tied type="stop"/><tied type="start"/>
  </notations>
 </note>
  

<note>
  <pitch>
    <step>E</step>
    
    <octave>4</octave>
  </pitch>
  <duration>24</duration>
  <tie type="start"/>
  <voice>1</voice>
  <type>quarter</type>
  
  <notations><tied type="stop"/><tied type="start"/>
  </notations>
 </note>
  

<note>
  <pitch>
    <step>E</step>
    
    <octave>4</octave>
  </pitch>
  <duration>24</duration>
  <tie type="start"/>
  <voice>1</voice>
  <type>quarter</type>
  
  <notations><tied type="stop"/><tied type="start"/>
  </notations>
 </note>
  

<note>
  <pitch>
    <step>E</step>
    
    <octave>4</octave>
  </pitch>
  <duration>24</duration>
  
  <voice>1</voice>
  <type>quarter</type>
  
  <notations><tied type="stop"/>
  </notations>
 </note>
  
</measure> <measure number="23">

</measure> <measure number="24">

            <direction placement="above">
                <direction-type>
<words default-x="-1" default-y="15" font-size="medium" font-weight="normal">A11</words>
                </direction-type>
            </direction>
<note>
  <pitch>
    <step>E</step>
    
    <octave>4</octave>
  </pitch>
  <duration>24</duration>
  <tie type="start"/>
  <voice>1</voice>
  <type>quarter</type>
  <lyric number="1">
   <text>I</text>
</lyric>
  <notations><tied type="start"/>
  </notations>
 </note>
  

<note>
  <pitch>
    <step>E</step>
    
    <octave>4</octave>
  </pitch>
  <duration>24</duration>
  
  <voice>1</voice>
  <type>quarter</type>
  
  <notations><tied type="stop"/>
  </notations>
 </note>
  
            <direction placement="above">
                <direction-type>
<words default-x="-1" default-y="15" font-size="medium" font-weight="normal">A7</words>
                </direction-type>
            </direction>
<note>
  <pitch>
    <step>E</step>
    
    <octave>4</octave>
  </pitch>
  <duration>24</duration>
  <tie type="start"/>
  <voice>1</voice>
  <type>quarter</type>
  <lyric number="1">
   <text>said</text>
</lyric>
  <notations><tied type="start"/>
  </notations>
 </note>
  

<note>
  <pitch>
    <step>E</step>
    
    <octave>4</octave>
  </pitch>
  <duration>24</duration>
  
  <voice>1</voice>
  <type>quarter</type>
  
  <notations><tied type="stop"/>
  </notations>
 </note>
  
</measure> <measure number="25">

            <direction placement="above">
                <direction-type>
<words default-x="-1" default-y="15" font-size="medium" font-weight="normal">Dmi</words>
                </direction-type>
            </direction>
<note>
  <pitch>
    <step>A</step>
    
    <octave>4</octave>
  </pitch>
  <duration>24</duration>
  
  <voice>1</voice>
  <type>quarter</type>
  <lyric number="1">
   <text>some-</text>
</lyric>
  <notations>
  </notations>
 </note>
  
            <direction placement="above">
                <direction-type>
<words default-x="-1" default-y="15" font-size="medium" font-weight="normal">C</words>
                </direction-type>
            </direction>
<note>
  <pitch>
    <step>B</step>
    
    <octave>4</octave>
  </pitch>
  <duration>24</duration>
  
  <voice>1</voice>
  <type>quarter</type>
  <lyric number="1">
   <text>thing</text>
</lyric>
  <notations>
  </notations>
 </note>
  
            <direction placement="above">
                <direction-type>
<words default-x="-1" default-y="15" font-size="medium" font-weight="normal">Bb</words>
                </direction-type>
            </direction>
<note>
  <pitch>
    <step>C</step>
    
    <octave>5</octave>
  </pitch>
  <duration>24</duration>
  
  <voice>1</voice>
  <type>quarter</type>
  <lyric number="1">
   <text>wrong</text>
</lyric>
  <notations>
  </notations>
 </note>
   
            <direction placement="above">
                <direction-type>
<words default-x="-1" default-y="15" font-size="medium" font-weight="normal">Dmi/A</words>
                </direction-type>
            </direction>
<note>
  <pitch>
    <step>B</step>
    
    <octave>4</octave>
  </pitch>
  <duration>12</duration>
  
  <voice>1</voice>
  <type>eighth</type>
  <lyric number="1">
   <text>now</text>
</lyric>
  <notations>
  </notations>
 </note>
  

<note>
  <pitch>
    <step>A</step>
    
    <octave>4</octave>
  </pitch>
  <duration>12</duration>
  
  <voice>1</voice>
  <type>eighth</type>
  <lyric number="1">
   <text>I</text>
</lyric>
  <notations>
  </notations>
 </note>
  
</measure> <measure number="26">

            <direction placement="above">
                <direction-type>
<words default-x="-1" default-y="15" font-size="medium" font-weight="normal">Gm</words>
                </direction-type>
            </direction>
<note>
  <pitch>
    <step>B</step>
    
    <octave>4</octave>
  </pitch>
  <duration>24</duration>
  <tie type="start"/>
  <voice>1</voice>
  <type>quarter</type>
  <lyric number="1">
   <text>long</text>
</lyric>
  <notations><tied type="start"/>
  </notations>
 </note>
   

<note>
  <pitch>
    <step>B</step>
    
    <octave>4</octave>
  </pitch>
  <duration>12</duration>
  
  <voice>1</voice>
  <type>eighth</type>
  
  <notations><tied type="stop"/>
  </notations>
 </note>
  

<note>
  <pitch>
    <step>A</step>
    
    <octave>4</octave>
  </pitch>
  <duration>12</duration>
  
  <voice>1</voice>
  <type>eighth</type>
  <lyric number="1">
   <text>for</text>
</lyric>
  <notations>
  </notations>
 </note>
  
            <direction placement="above">
                <direction-type>
<words default-x="-1" default-y="15" font-size="medium" font-weight="normal">C</words>
                </direction-type>
            </direction>
<note>
  <pitch>
    <step>G</step>
    
    <octave>4</octave>
  </pitch>
  <duration>24</duration>
  
  <voice>1</voice>
  <type>quarter</type>
  <lyric number="1">
   <text>yes-</text>
</lyric>
  <notations>
  </notations>
 </note>
  

<note>
  <pitch>
    <step>B</step>
    
    <octave>4</octave>
  </pitch>
  <duration>24</duration>
  
  <voice>1</voice>
  <type>quarter</type>
  <lyric number="1">
   <text>ter-</text>
</lyric>
  <notations>
  </notations>
 </note>
  
</measure> <measure number="27">

            <direction placement="above">
                <direction-type>
<words default-x="-1" default-y="15" font-size="medium" font-weight="normal">F</words>
                </direction-type>
            </direction>
<note>
  <pitch>
    <step>C</step>
    
    <octave>5</octave>
  </pitch>
  <duration>24</duration>
  
  <voice>1</voice>
  <type>quarter</type>
  <lyric number="1">
   <text>day</text>
</lyric>
  <notations>
  <slur number="1" type="start"/></notations>
 </note>
  

<note>
  <pitch>
    <step>G</step>
    
    <octave>4</octave>
  </pitch>
  <duration>24</duration>
  
  <voice>1</voice>
  <type>quarter</type>
  
  <notations>
  </notations>
 </note>
  

<note>
  <pitch>
    <step>F</step>
    
    <octave>4</octave>
  </pitch>
  <duration>24</duration>
  
  <voice>1</voice>
  <type>quarter</type>
  
  <notations>
  </notations>
 </note>
  

<note>
  <pitch>
    <step>E</step>
    
    <octave>4</octave>
  </pitch>
  <duration>24</duration>
  
  <voice>1</voice>
  <type>quarter</type>
  
  <notations>
  <slur number="1" type="stop"/></notations>
 </note>
  <barline location="right">
   <repeat direction="backward" times="2"/>
</barline>
</measure> <measure number="28">

            <direction placement="above">
                <direction-type>
<words default-x="-1" default-y="15" font-size="medium" font-weight="normal">F</words>
                </direction-type>
            </direction>
<note>
  <pitch>
    <step>C</step>
    
    <octave>5</octave>
  </pitch>
  <duration>24</duration>
  <tie type="start"/>
  <voice>1</voice>
  <type>quarter</type>
  <lyric number="1">
   <text>day</text>
</lyric>
  <notations><tied type="start"/>
  </notations>
 </note>
  

<note>
  <pitch>
    <step>C</step>
    
    <octave>5</octave>
  </pitch>
  <duration>24</duration>
  <tie type="start"/>
  <voice>1</voice>
  <type>quarter</type>
  
  <notations><tied type="stop"/><tied type="start"/>
  </notations>
 </note>
  

<note>
  <pitch>
    <step>C</step>
    
    <octave>5</octave>
  </pitch>
  <duration>24</duration>
  <tie type="start"/>
  <voice>1</voice>
  <type>quarter</type>
  
  <notations><tied type="stop"/><tied type="start"/>
  </notations>
 </note>
  

<note>
  <pitch>
    <step>C</step>
    
    <octave>5</octave>
  </pitch>
  <duration>24</duration>
  
  <voice>1</voice>
  <type>quarter</type>
  
  <notations><tied type="stop"/>
  </notations>
 </note>
   
<barline location="right">
<bar-style>light-light</bar-style>
</barline>
</measure>
    </part>
</score-partwise>
