<?xml version="1.0" encoding="UTF-8"?>
<!DOCTYPE score-partwise PUBLIC "-//Recordare//DTD MusicXML 2.0 Partwise//EN" "http://www.musicxml.org/dtds/partwise.dtd">
<score-partwise version="2.0">
    <work>
        <work-number></work-number>
        <work-title></work-title>
    </work>
    <movement-number></movement-number>
    <movement-title>Bansuri</movement-title>
    <identification>
            <creator type="composer"></creator>
            <creator type="poet"></creator>
        <rights></rights>
        <encoding>
            <software>DoremiScript</software>
            <encoding-date></encoding-date>
            <software>DoremiScript</software>
        </encoding>
        <source></source>
    </identification>
    <defaults>
        <scaling>
            <millimeters>7.056</millimeters>
            <tenths>40</tenths>
        </scaling>
        <page-layout>
            <page-height>1683.67</page-height>
            <page-width>1190.48</page-width>
            <page-margins type="both">
                <left-margin>56.6893</left-margin>
                <right-margin>56.6893</right-margin>
                <top-margin>56.6893</top-margin>
                <bottom-margin>113.379</bottom-margin>
            </page-margins>
        </page-layout>
    </defaults>
    <credit page="1">
            <credit-words font-size="24" default-y="1626.98" default-x="595.238" justify="center" valign="top">Bansuri</credit-words>
    </credit>
    <part-list>
        <score-part id="P1">
            <part-name></part-name>
            <score-instrument id="P1-I3">
                <instrument-name></instrument-name>
            </score-instrument>
            <midi-instrument id="P1-I3">
                <midi-channel>1</midi-channel>
                <midi-program>1</midi-program>
            </midi-instrument>
        </score-part>
    </part-list>
    <part id="P1">
        <measure number="0" implicit="yes">
            <print>
                <system-layout>
                    <system-margins>
                        <left-margin>-0.00</left-margin>
                        <right-margin>0.00</right-margin>
                    </system-margins>
                    <top-system-distance>252.10</top-system-distance>
                </system-layout>
            </print>
            <attributes>
                <divisions>24</divisions>
                <key>
                    <fifths>0</fifths>
                    <mode>phrygian</mode>
                </key>
                <time symbol="common">
                    <beats>4</beats>
                    <beat-type>4</beat-type>
                </time>
                <clef>
                    <sign>G</sign>
                    <line>2</line>
                </clef>
            </attributes>
            

<note>
  <pitch>
    <step>C</step>
    
    <octave>4</octave>
  </pitch>
  <duration>12</duration>
  
  <voice>1</voice>
  <type>eighth</type>
  <lyric number="1">
   <text>ban-</text>
</lyric>
  <notations>
  <slur number="1" type="start"/></notations>
 </note>
  
<note>
  <pitch>
    <step>D</step>
    <alter>-1</alter>
    <octave>4</octave>
  </pitch>
  <duration>12</duration>
  
  <voice>1</voice>
  <type>eighth</type>
  
  <notations>
  </notations>
 </note>
 
</measure> <measure number="2">
<note>
  <grace  />
  <pitch>
    <step>C</step>
          
    <octave>4</octave>
  </pitch>
  <voice>1</voice>
  <type><span>32nd</span></type>
</note>
<note>
  <pitch>
    <step>B</step>
    <alter>-1</alter>
    <octave>3</octave>
  </pitch>
  <duration>24</duration>
  
  <voice>1</voice>
  <type>quarter</type>
  
  <notations>
  <slur number="1" type="stop"/></notations>
 </note>
  
<note>
  <pitch>
    <step>C</step>
    
    <octave>4</octave>
  </pitch>
  <duration>24</duration>
  
  <voice>1</voice>
  <type>quarter</type>
  <lyric number="1">
   <text>su-</text>
</lyric>
  <notations>
  </notations>
 </note>
  
<note>
  <pitch>
    <step>E</step>
    <alter>-1</alter>
    <octave>4</octave>
  </pitch>
  <duration>12</duration>
  
  <voice>1</voice>
  <type>eighth</type>
  <lyric number="1">
   <text>ri</text>
</lyric>
  <notations>
  <slur number="2" type="start"/></notations>
 </note>
  
<note>
  <pitch>
    <step>F</step>
    
    <octave>4</octave>
  </pitch>
  <duration>12</duration>
  
  <voice>1</voice>
  <type>eighth</type>
  
  <notations>
  </notations>
 </note>
  
<note>
  <pitch>
    <step>G</step>
    
    <octave>4</octave>
  </pitch>
  <duration>12</duration>
  
  <voice>1</voice>
  <type>eighth</type>
  
  <notations>
  </notations>
 </note>
  <note>
  <grace  />
  <pitch>
    <step>B</step>
          <alter>-1</alter>
    <octave>4</octave>
  </pitch>
  <voice>1</voice>
  <type><span>32nd</span></type>
</note>
<note>
  <pitch>
    <step>A</step>
    <alter>-1</alter>
    <octave>4</octave>
  </pitch>
  <duration>12</duration>
  
  <voice>1</voice>
  <type>eighth</type>
  
  <notations>
  <slur number="2" type="stop"/></notations>
 </note>
 
</measure> <measure number="3">

<note>
  <pitch>
    <step>G</step>
    
    <octave>4</octave>
  </pitch>
  <duration>24</duration>
  <tie type="start"/>
  <voice>1</voice>
  <type>quarter</type>
  <lyric number="1">
   <text>ba-</text>
</lyric>
  <notations><tied type="start"/>
  </notations>
 </note>
  
<note>
  <pitch>
    <step>G</step>
    
    <octave>4</octave>
  </pitch>
  <duration>24</duration>
  
  <voice>1</voice>
  <type>quarter</type>
  
  <notations><tied type="end"/>
  </notations>
 </note>
  
<note>
  <pitch>
    <step>G</step>
    
    <octave>4</octave>
  </pitch>
  <duration>24</duration>
  
  <voice>1</voice>
  <type>quarter</type>
  <lyric number="1">
   <text>ja</text>
</lyric>
  <notations>
  </notations>
 </note>
  
<note>
  <pitch>
    <step>G</step>
    
    <octave>4</octave>
  </pitch>
  <duration>24</duration>
  
  <voice>1</voice>
  <type>quarter</type>
  <lyric number="1">
   <text>ra-</text>
</lyric>
  <notations>
  </notations>
 </note>
 
</measure> <measure number="4">

<note>
  <pitch>
    <step>G</step>
    
    <octave>4</octave>
  </pitch>
  <duration>24</duration>
  <tie type="start"/>
  <voice>1</voice>
  <type>quarter</type>
  <lyric number="1">
   <text>hi</text>
</lyric>
  <notations><tied type="start"/>
  </notations>
 </note>
  
<note>
  <pitch>
    <step>G</step>
    
    <octave>4</octave>
  </pitch>
  <duration>24</duration>
  
  <voice>1</voice>
  <type>quarter</type>
  
  <notations><tied type="end"/>
  </notations>
 </note>
  
<note>
  <pitch>
    <step>A</step>
    
    <octave>4</octave>
  </pitch>
  <duration>24</duration>
  
  <voice>1</voice>
  <type>quarter</type>
  <lyric number="1">
   <text>dhu-</text>
</lyric>
  <notations>
  </notations>
 </note>
  <note>
  <grace  />
  <pitch>
    <step>A</step>
          
    <octave>4</octave>
  </pitch>
  <voice>1</voice>
  <type><span>32nd</span></type>
</note>/n<note>
  <grace  />
  <pitch>
    <step>C</step>
          
    <octave>5</octave>
  </pitch>
  <voice>1</voice>
  <type><span>32nd</span></type>
</note>/n<note>
  <grace  />
  <pitch>
    <step>B</step>
          <alter>-1</alter>
    <octave>4</octave>
  </pitch>
  <voice>1</voice>
  <type><span>32nd</span></type>
</note>/n<note>
  <grace  />
  <pitch>
    <step>A</step>
          
    <octave>4</octave>
  </pitch>
  <voice>1</voice>
  <type><span>32nd</span></type>
</note>/n<note>
  <grace  />
  <pitch>
    <step>B</step>
          <alter>-1</alter>
    <octave>4</octave>
  </pitch>
  <voice>1</voice>
  <type><span>32nd</span></type>
</note>
<note>
  <pitch>
    <step>B</step>
    <alter>-1</alter>
    <octave>4</octave>
  </pitch>
  <duration>24</duration>
  
  <voice>1</voice>
  <type>quarter</type>
  <lyric number="1">
   <text>na</text>
</lyric>
  <notations>
  </notations>
 </note>
 
</measure> <measure number="5">

<note>
  <pitch>
    <step>G</step>
    
    <octave>4</octave>
  </pitch>
  <duration>24</duration>
  
  <voice>1</voice>
  <type>quarter</type>
  <lyric number="1">
   <text>ma-</text>
</lyric>
  <notations>
  </notations>
 </note>
  
<note>
  <pitch>
    <step>A</step>
    <alter>-1</alter>
    <octave>4</octave>
  </pitch>
  <duration>24</duration>
  
  <voice>1</voice>
  <type>quarter</type>
  <lyric number="1">
   <text>dhu-</text>
</lyric>
  <notations>
  </notations>
 </note>
  
<note>
  <pitch>
    <step>G</step>
    
    <octave>4</octave>
  </pitch>
  <duration>24</duration>
  
  <voice>1</voice>
  <type>quarter</type>
  <lyric number="1">
   <text>ra</text>
</lyric>
  <notations>
  </notations>
 </note>
  
<note>
  <pitch>
    <step>A</step>
    <alter>-1</alter>
    <octave>4</octave>
  </pitch>
  <duration>24</duration>
  
  <voice>1</voice>
  <type>quarter</type>
  <lyric number="1">
   <text>kan-</text>
</lyric>
  <notations>
  </notations>
 </note>
 
</measure> <measure number="6">

<note>
  <pitch>
    <step>G</step>
    
    <octave>4</octave>
  </pitch>
  <duration>12</duration>
  
  <voice>1</voice>
  <type>eighth</type>
  <lyric number="1">
   <text>nai-</text>
</lyric>
  <notations>
  <slur number="3" type="start"/></notations>
 </note>
  
<note>
  <pitch>
    <step>F</step>
    
    <octave>4</octave>
  </pitch>
  <duration>12</duration>
  
  <voice>1</voice>
  <type>eighth</type>
  
  <notations>
  </notations>
 </note>
  
<note>
  <pitch>
    <step>G</step>
    
    <octave>4</octave>
  </pitch>
  <duration>6</duration>
  
  <voice>1</voice>
  <type>16th</type>
  
  <notations>
  </notations>
 </note>
  
<note>
  <pitch>
    <step>F</step>
    
    <octave>4</octave>
  </pitch>
  <duration>6</duration>
  
  <voice>1</voice>
  <type>16th</type>
  
  <notations>
  </notations>
 </note>
  
<note>
  <pitch>
    <step>B</step>
    <alter>-1</alter>
    <octave>4</octave>
  </pitch>
  <duration>6</duration>
  
  <voice>1</voice>
  <type>16th</type>
  
  <notations>
  </notations>
 </note>
  
<note>
  <pitch>
    <step>G</step>
    
    <octave>4</octave>
  </pitch>
  <duration>6</duration>
  
  <voice>1</voice>
  <type>16th</type>
  
  <notations>
  <slur number="3" type="stop"/></notations>
 </note>
  <note>
  <grace  />
  <pitch>
    <step>F</step>
          
    <octave>4</octave>
  </pitch>
  <voice>1</voice>
  <type><span>32nd</span></type>
</note>/n<note>
  <grace  />
  <pitch>
    <step>E</step>
          <alter>-1</alter>
    <octave>4</octave>
  </pitch>
  <voice>1</voice>
  <type><span>32nd</span></type>
</note>/n<note>
  <grace  />
  <pitch>
    <step>F</step>
          
    <octave>4</octave>
  </pitch>
  <voice>1</voice>
  <type><span>32nd</span></type>
</note>
<note>
  <pitch>
    <step>E</step>
    <alter>-1</alter>
    <octave>4</octave>
  </pitch>
  <duration>24</duration>
  
  <voice>1</voice>
  <type>quarter</type>
  <lyric number="1">
   <text>ya</text>
</lyric>
  <notations>
  <slur number="4" type="start"/></notations>
 </note>
  
<note>
  <pitch>
    <step>F</step>
    
    <octave>4</octave>
  </pitch>
  <duration>24</duration>
  
  <voice>1</voice>
  <type>quarter</type>
  
  <notations>
  <slur number="4" type="stop"/></notations>
 </note>
 
</measure> <measure number="7">

<note>
  <pitch>
    <step>G</step>
    
    <octave>4</octave>
  </pitch>
  <duration>6</duration>
  
  <voice>1</voice>
  <type>16th</type>
  <lyric number="1">
   <text>khe-</text>
</lyric>
  <notations>
  <slur number="5" type="start"/></notations>
 </note>
  
<note>
  <pitch>
    <step>A</step>
    <alter>-1</alter>
    <octave>4</octave>
  </pitch>
  <duration>6</duration>
  
  <voice>1</voice>
  <type>16th</type>
  
  <notations>
  </notations>
 </note>
  
<note>
  <pitch>
    <step>B</step>
    <alter>-1</alter>
    <octave>4</octave>
  </pitch>
  <duration>6</duration>
  
  <voice>1</voice>
  <type>16th</type>
  
  <notations>
  </notations>
 </note>
  
<note>
  <pitch>
    <step>C</step>
    
    <octave>5</octave>
  </pitch>
  <duration>6</duration>
  <tie type="start"/>
  <voice>1</voice>
  <type>16th</type>
  
  <notations><tied type="start"/>
  <slur number="5" type="stop"/></notations>
 </note>
  
<note>
  <pitch>
    <step>C</step>
    
    <octave>5</octave>
  </pitch>
  <duration>24</duration>
  
  <voice>1</voice>
  <type>quarter</type>
  
  <notations><tied type="end"/>
  </notations>
 </note>
   
<note>
  <pitch>
    <step>E</step>
    <alter>-1</alter>
    <octave>5</octave>
  </pitch>
  <duration>24</duration>
  
  <voice>1</voice>
  <type>quarter</type>
  <lyric number="1">
   <text>la-</text>
</lyric>
  <notations>
  </notations>
 </note>
  
<note>
  <pitch>
    <step>C</step>
    
    <octave>5</octave>
  </pitch>
  <duration>24</duration>
  
  <voice>1</voice>
  <type>quarter</type>
  <lyric number="1">
   <text>ta</text>
</lyric>
  <notations>
  </notations>
 </note>
 
</measure> <measure number="8">

<note>
  <pitch>
    <step>A</step>
    <alter>-1</alter>
    <octave>4</octave>
  </pitch>
  <duration>12</duration>
  
  <voice>1</voice>
  <type>eighth</type>
  <lyric number="1">
   <text>ga-</text>
</lyric>
  <notations>
  <slur number="6" type="start"/></notations>
 </note>
   
<note>
  <pitch>
    <step>G</step>
    
    <octave>4</octave>
  </pitch>
  <duration>6</duration>
  
  <voice>1</voice>
  <type>16th</type>
  
  <notations>
  </notations>
 </note>
  
<note>
  <pitch>
    <step>F</step>
    
    <octave>4</octave>
  </pitch>
  <duration>6</duration>
  
  <voice>1</voice>
  <type>16th</type>
  
  <notations>
  </notations>
 </note>
  
<note>
  <pitch>
    <step>E</step>
    <alter>-1</alter>
    <octave>4</octave>
  </pitch>
  <duration>24</duration>
  
  <voice>1</voice>
  <type>quarter</type>
  
  <notations>
  <slur number="6" type="stop"/></notations>
 </note>
  
<note>
  <pitch>
    <step>G</step>
    
    <octave>4</octave>
  </pitch>
  <duration>24</duration>
  
  <voice>1</voice>
  <type>quarter</type>
  <lyric number="1">
   <text>wa-</text>
</lyric>
  <notations>
  </notations>
 </note>
  <note>
  <grace  />
  <pitch>
    <step>G</step>
          
    <octave>4</octave>
  </pitch>
  <voice>1</voice>
  <type><span>32nd</span></type>
</note>/n<note>
  <grace  />
  <pitch>
    <step>F</step>
          
    <octave>4</octave>
  </pitch>
  <voice>1</voice>
  <type><span>32nd</span></type>
</note>
<note>
  <pitch>
    <step>F</step>
    
    <octave>4</octave>
  </pitch>
  <duration>24</duration>
  
  <voice>1</voice>
  <type>quarter</type>
  <lyric number="1">
   <text>ta</text>
</lyric>
  <notations>
  </notations>
 </note>
 
</measure> <measure number="9">

<note>
  <pitch>
    <step>D</step>
    <alter>-1</alter>
    <octave>4</octave>
  </pitch>
  <duration>24</duration>
  <tie type="start"/>
  <voice>1</voice>
  <type>quarter</type>
  <lyric number="1">
   <text>ho-</text>
</lyric>
  <notations><tied type="start"/>
  </notations>
 </note>
  
<note>
  <pitch>
    <step>D</step>
    <alter>-1</alter>
    <octave>4</octave>
  </pitch>
  <duration>24</duration>
  
  <voice>1</voice>
  <type>quarter</type>
  
  <notations><tied type="end"/>
  </notations>
 </note>
  
<note>
  <pitch>
    <step>C</step>
    
    <octave>4</octave>
  </pitch>
  <duration>24</duration>
  
  <voice>1</voice>
  <type>quarter</type>
  <lyric number="1">
   <text>ri</text>
</lyric>
  <notations>
  </notations>
 </note>
 
</measure>
    </part>
</score-partwise>

